<?xml version="1.0" encoding="UTF-8" standalone="no"?>
<!DOCTYPE svg PUBLIC "-//W3C//DTD SVG 1.1//EN" "http://www.w3.org/Graphics/SVG/1.1/DTD/svg11.dtd">
<svg width="100%" height="100%" viewBox="0 0 2528 697" version="1.1" xmlns="http://www.w3.org/2000/svg" xmlns:xlink="http://www.w3.org/1999/xlink" xml:space="preserve" xmlns:serif="http://www.serif.com/" style="fill-rule:evenodd;clip-rule:evenodd;stroke-linejoin:round;stroke-miterlimit:2;">
    <g transform="matrix(1,0,0,1,-7887.624092,-860.260477)">
        <g id="Logo_horizontal_transparente_dark" transform="matrix(0.720539,0,0,0.284628,2492.16207,860.260477)">
            <rect x="7488.094" y="0" width="3507.874" height="2448.284" style="fill:none;"/>
            <g transform="matrix(15.373538,0,0,38.918266,-10994.449463,-100998.368646)">
                <path d="M1242.194,2640.718C1242.142,2640.781 1242.084,2640.842 1242.019,2640.9C1239.619,2643.133 1236.586,2644.25 1232.919,2644.25C1230.319,2644.25 1227.986,2643.642 1225.919,2642.425C1223.852,2641.208 1222.227,2639.542 1221.044,2637.425C1219.861,2635.308 1219.269,2632.95 1219.269,2630.35C1219.269,2627.683 1219.836,2625.292 1220.969,2623.175C1222.102,2621.058 1223.669,2619.4 1225.669,2618.2C1227.669,2617 1229.919,2616.4 1232.419,2616.4C1236.586,2616.4 1239.969,2618 1242.569,2621.2C1242.836,2621.5 1242.969,2621.85 1242.969,2622.25C1242.969,2622.783 1242.686,2623.25 1242.119,2623.65C1241.819,2623.85 1241.502,2623.95 1241.169,2623.95C1240.669,2623.95 1240.186,2623.7 1239.719,2623.2C1238.719,2622.1 1237.619,2621.275 1236.419,2620.725C1235.219,2620.175 1233.886,2619.9 1232.419,2619.9C1230.586,2619.9 1228.952,2620.342 1227.519,2621.225C1226.086,2622.108 1224.977,2623.35 1224.194,2624.95C1223.411,2626.55 1223.019,2628.35 1223.019,2630.35C1223.019,2632.317 1223.436,2634.092 1224.269,2635.675C1225.102,2637.258 1226.269,2638.5 1227.769,2639.4C1229.269,2640.3 1230.986,2640.75 1232.919,2640.75C1235.586,2640.75 1237.736,2640.033 1239.369,2638.6C1239.427,2638.551 1239.484,2638.506 1239.542,2638.464C1242.074,2636.348 1249.583,2624.913 1250.869,2623.2C1252.338,2621.242 1253.727,2619.4 1255.844,2618.2C1257.961,2617 1260.336,2616.4 1262.969,2616.4C1265.602,2616.4 1267.969,2617 1270.069,2618.2C1272.169,2619.4 1273.827,2621.067 1275.044,2623.2C1276.261,2625.333 1276.869,2627.717 1276.869,2630.35C1276.869,2632.983 1276.269,2635.358 1275.069,2637.475C1273.869,2639.592 1272.211,2641.25 1270.094,2642.45C1267.977,2643.65 1265.602,2644.25 1262.969,2644.25C1260.336,2644.25 1257.043,2643.017 1255.844,2642.304C1255.176,2641.907 1255.083,2640.966 1255.566,2640.135C1256.037,2639.322 1257.061,2639.126 1257.794,2639.4C1258.789,2639.771 1261.069,2640.75 1262.969,2640.75C1264.902,2640.75 1266.636,2640.3 1268.169,2639.4C1269.702,2638.5 1270.902,2637.258 1271.769,2635.675C1272.636,2634.092 1273.069,2632.317 1273.069,2630.35C1273.069,2628.35 1272.636,2626.558 1271.769,2624.975C1270.902,2623.392 1269.702,2622.15 1268.169,2621.25C1266.636,2620.35 1264.902,2619.9 1262.969,2619.9C1261.069,2619.9 1259.344,2620.35 1257.794,2621.25C1256.244,2622.15 1255.279,2623.561 1254.144,2624.975C1252.932,2626.485 1245.92,2637.006 1242.194,2640.718Z" style="fill:rgb(253,108,72);"/>
                <path d="M1296.719,2616.35C1298.119,2616.35 1299.227,2616.533 1300.044,2616.9C1300.861,2617.267 1301.269,2617.783 1301.269,2618.45C1301.269,2618.65 1301.252,2618.8 1301.219,2618.9C1301.086,2619.367 1300.877,2619.683 1300.594,2619.85C1300.311,2620.017 1299.919,2620.1 1299.419,2620.1C1299.119,2620.1 1298.602,2620.067 1297.869,2620C1297.602,2619.967 1297.202,2619.95 1296.669,2619.95C1294.169,2619.95 1292.127,2620.617 1290.544,2621.95C1288.961,2623.283 1288.169,2625.017 1288.169,2627.15L1288.169,2642.1C1288.169,2642.7 1288.002,2643.167 1287.669,2643.5C1287.336,2643.833 1286.869,2644 1286.269,2644C1285.669,2644 1285.202,2643.833 1284.869,2643.5C1284.536,2643.167 1284.369,2642.7 1284.369,2642.1L1284.369,2618.55C1284.369,2617.95 1284.536,2617.483 1284.869,2617.15C1285.202,2616.817 1285.669,2616.65 1286.269,2616.65C1286.869,2616.65 1287.336,2616.817 1287.669,2617.15C1288.002,2617.483 1288.169,2617.95 1288.169,2618.55L1288.169,2620.75C1289.136,2619.35 1290.369,2618.267 1291.869,2617.5C1293.369,2616.733 1294.986,2616.35 1296.719,2616.35Z" style="fill:rgb(1,11,19);fill-rule:nonzero;"/>
                <path d="M1317.119,2616.4C1319.719,2616.4 1322.077,2617.008 1324.194,2618.225C1326.311,2619.442 1327.977,2621.117 1329.194,2623.25C1330.411,2625.383 1331.019,2627.75 1331.019,2630.35L1331.019,2642.1C1331.019,2642.633 1330.836,2643.083 1330.469,2643.45C1330.102,2643.817 1329.636,2644 1329.069,2644C1328.502,2644 1328.036,2643.825 1327.669,2643.475C1327.302,2643.125 1327.119,2642.667 1327.119,2642.1L1327.119,2639.1C1325.952,2640.7 1324.469,2641.958 1322.669,2642.875C1320.869,2643.792 1318.886,2644.25 1316.719,2644.25C1314.186,2644.25 1311.894,2643.642 1309.844,2642.425C1307.794,2641.208 1306.177,2639.542 1304.994,2637.425C1303.811,2635.308 1303.219,2632.95 1303.219,2630.35C1303.219,2627.75 1303.827,2625.383 1305.044,2623.25C1306.261,2621.117 1307.927,2619.442 1310.044,2618.225C1312.161,2617.008 1314.519,2616.4 1317.119,2616.4ZM1317.119,2640.75C1319.019,2640.75 1320.736,2640.3 1322.269,2639.4C1323.802,2638.5 1325.011,2637.258 1325.894,2635.675C1326.777,2634.092 1327.219,2632.317 1327.219,2630.35C1327.219,2628.383 1326.777,2626.608 1325.894,2625.025C1325.011,2623.442 1323.802,2622.192 1322.269,2621.275C1320.736,2620.358 1319.019,2619.9 1317.119,2619.9C1315.219,2619.9 1313.494,2620.358 1311.944,2621.275C1310.394,2622.192 1309.177,2623.442 1308.294,2625.025C1307.411,2626.608 1306.969,2628.383 1306.969,2630.35C1306.969,2632.317 1307.411,2634.092 1308.294,2635.675C1309.177,2637.258 1310.394,2638.5 1311.944,2639.4C1313.494,2640.3 1315.219,2640.75 1317.119,2640.75Z" style="fill:rgb(1,11,19);fill-rule:nonzero;"/>
                <path d="M1344.419,2644C1342.386,2644 1340.727,2643.192 1339.444,2641.575C1338.161,2639.958 1337.519,2637.883 1337.519,2635.35L1337.519,2606.85C1337.519,2606.283 1337.702,2605.825 1338.069,2605.475C1338.436,2605.125 1338.886,2604.95 1339.419,2604.95C1339.986,2604.95 1340.444,2605.125 1340.794,2605.475C1341.144,2605.825 1341.319,2606.283 1341.319,2606.85L1341.319,2635.35C1341.319,2636.783 1341.611,2637.95 1342.194,2638.85C1342.777,2639.75 1343.519,2640.2 1344.419,2640.2L1345.669,2640.2C1346.169,2640.2 1346.569,2640.375 1346.869,2640.725C1347.169,2641.075 1347.319,2641.533 1347.319,2642.1C1347.319,2642.667 1347.111,2643.125 1346.694,2643.475C1346.277,2643.825 1345.736,2644 1345.069,2644L1344.419,2644Z" style="fill:rgb(1,11,19);fill-rule:nonzero;"/>
                <path d="M1364.169,2616.4C1366.769,2616.4 1369.127,2617.008 1371.244,2618.225C1373.361,2619.442 1375.027,2621.117 1376.244,2623.25C1377.461,2625.383 1378.069,2627.75 1378.069,2630.35L1378.069,2642.1C1378.069,2642.633 1377.886,2643.083 1377.519,2643.45C1377.152,2643.817 1376.686,2644 1376.119,2644C1375.552,2644 1375.086,2643.825 1374.719,2643.475C1374.352,2643.125 1374.169,2642.667 1374.169,2642.1L1374.169,2639.1C1373.002,2640.7 1371.519,2641.958 1369.719,2642.875C1367.919,2643.792 1365.936,2644.25 1363.769,2644.25C1361.236,2644.25 1358.944,2643.642 1356.894,2642.425C1354.844,2641.208 1353.227,2639.542 1352.044,2637.425C1350.861,2635.308 1350.269,2632.95 1350.269,2630.35C1350.269,2627.75 1350.877,2625.383 1352.094,2623.25C1353.311,2621.117 1354.977,2619.442 1357.094,2618.225C1359.211,2617.008 1361.569,2616.4 1364.169,2616.4ZM1364.169,2640.75C1366.069,2640.75 1367.786,2640.3 1369.319,2639.4C1370.852,2638.5 1372.061,2637.258 1372.944,2635.675C1373.827,2634.092 1374.269,2632.317 1374.269,2630.35C1374.269,2628.383 1373.827,2626.608 1372.944,2625.025C1372.061,2623.442 1370.852,2622.192 1369.319,2621.275C1367.786,2620.358 1366.069,2619.9 1364.169,2619.9C1362.269,2619.9 1360.544,2620.358 1358.994,2621.275C1357.444,2622.192 1356.227,2623.442 1355.344,2625.025C1354.461,2626.608 1354.019,2628.383 1354.019,2630.35C1354.019,2632.317 1354.461,2634.092 1355.344,2635.675C1356.227,2637.258 1357.444,2638.5 1358.994,2639.4C1360.544,2640.3 1362.269,2640.75 1364.169,2640.75Z" style="fill:rgb(1,11,19);fill-rule:nonzero;"/>
                <path d="M1399.869,2616.4C1402.402,2616.4 1404.694,2617.008 1406.744,2618.225C1408.794,2619.442 1410.411,2621.108 1411.594,2623.225C1412.777,2625.342 1413.369,2627.7 1413.369,2630.3C1413.369,2632.9 1412.761,2635.267 1411.544,2637.4C1410.327,2639.533 1408.661,2641.208 1406.544,2642.425C1404.427,2643.642 1402.069,2644.25 1399.469,2644.25C1396.869,2644.25 1394.511,2643.642 1392.394,2642.425C1390.277,2641.208 1388.611,2639.533 1387.394,2637.4C1386.177,2635.267 1385.569,2632.9 1385.569,2630.3L1385.569,2618.55C1385.569,2618.35 1385.586,2618.2 1385.619,2618.1L1385.619,2606.9C1385.619,2606.333 1385.794,2605.867 1386.144,2605.5C1386.494,2605.133 1386.952,2604.95 1387.519,2604.95C1388.086,2604.95 1388.552,2605.133 1388.919,2605.5C1389.286,2605.867 1389.469,2606.333 1389.469,2606.9L1389.469,2621.55C1390.636,2619.95 1392.119,2618.692 1393.919,2617.775C1395.719,2616.858 1397.702,2616.4 1399.869,2616.4ZM1399.469,2640.75C1401.369,2640.75 1403.094,2640.292 1404.644,2639.375C1406.194,2638.458 1407.411,2637.208 1408.294,2635.625C1409.177,2634.042 1409.619,2632.267 1409.619,2630.3C1409.619,2628.333 1409.177,2626.558 1408.294,2624.975C1407.411,2623.392 1406.194,2622.15 1404.644,2621.25C1403.094,2620.35 1401.369,2619.9 1399.469,2619.9C1396.836,2619.9 1394.594,2620.733 1392.744,2622.4C1390.894,2624.067 1389.802,2626.2 1389.469,2628.8C1389.469,2628.9 1389.452,2628.983 1389.419,2629.05C1389.386,2629.317 1389.369,2629.733 1389.369,2630.3C1389.369,2632.267 1389.811,2634.042 1390.694,2635.625C1391.577,2637.208 1392.786,2638.458 1394.319,2639.375C1395.852,2640.292 1397.569,2640.75 1399.469,2640.75Z" style="fill:rgb(1,11,19);fill-rule:nonzero;"/>
            </g>
        </g>
    </g>
</svg>
